<svg width="32" height="32" viewBox="0 0 32 32" fill="none" xmlns="http://www.w3.org/2000/svg">
<g clip-path="url(#clip0_771_277)">
<path fill-rule="evenodd" clip-rule="evenodd" d="M31.9951 8.167C31.9951 7.183 31.9121 6.203 31.6771 5.245C31.2551 3.5 30.2601 2.167 28.7711 1.188C28.0051 0.688 27.1621 0.381 26.2661 0.219C25.578 0.0988085 24.8815 0.0326067 24.1831 0.021C24.1311 0.016 24.0741 0.005 24.0161 0H7.98508C7.78175 0.0153333 7.57875 0.0273333 7.37608 0.036C6.38108 0.093 5.39208 0.197 4.45408 0.572C2.67308 1.275 1.38608 2.504 0.63608 4.275C0.37608 4.874 0.24508 5.509 0.15208 6.155C0.0740801 6.676 0.0320801 7.202 0.0170801 7.728C0.0170801 7.77 0.00708008 7.811 0.00708008 7.853V24.15L0.0380801 24.713C0.10608 25.802 0.24608 26.88 0.70508 27.88C1.57008 29.771 3.02308 31.015 5.01808 31.614C5.57508 31.786 6.15908 31.864 6.74208 31.916C7.48208 31.989 8.22108 31.999 8.96108 31.999H23.6691C24.3671 31.9977 25.0651 31.9527 25.7631 31.864C26.8621 31.723 27.8931 31.4 28.8261 30.786C29.9305 30.0706 30.8013 29.0475 31.3311 27.843C31.5811 27.28 31.7221 26.682 31.8261 26.077C31.9771 25.176 32.0081 24.264 32.0081 23.353C32.0031 18.29 32.0081 13.228 32.0031 8.165L31.9951 8.167ZM23.4321 21.099V13.484L23.4301 13.478V5.837C23.4294 5.73833 23.4241 5.63933 23.4141 5.54C23.3721 5.123 23.0851 4.863 22.6741 4.899C22.3781 4.92 22.0811 4.983 21.7891 5.04C20.8931 5.217 20.0031 5.399 19.1071 5.576L16.0811 6.191C15.1021 6.384 14.1281 6.582 13.1491 6.78C12.8061 6.853 12.4571 6.915 12.1181 7.004C11.7541 7.093 11.4831 7.312 11.3891 7.692C11.3524 7.85467 11.3334 8.01967 11.3321 8.187V20.229C11.3061 20.75 11.0401 21.073 10.5301 21.182L9.38408 21.416C8.87908 21.52 8.38408 21.629 7.90508 21.827C6.67608 22.348 6.18108 23.515 6.36908 24.598C6.58708 25.853 7.65008 26.702 8.92608 26.655C9.41313 26.6394 9.89627 26.5624 10.3641 26.426C11.2491 26.171 11.9051 25.634 12.2751 24.78C12.4981 24.26 12.5611 23.708 12.5611 23.145C12.5661 19.677 12.5611 16.208 12.5661 12.739C12.5661 12.682 12.5611 12.624 12.5661 12.567C12.5821 12.182 12.7121 12.015 13.0821 11.911C13.1031 11.911 13.1291 11.9 13.1501 11.895L18.0821 10.9C19.0934 10.692 20.1074 10.489 21.1241 10.291C21.3321 10.249 21.5401 10.212 21.7541 10.202C21.9621 10.192 22.1081 10.312 22.1601 10.515C22.1822 10.5949 22.1943 10.6772 22.1961 10.76V18.02C22.1961 18.103 22.1911 18.192 22.1701 18.275C22.0971 18.656 21.8581 18.88 21.4881 18.963C20.9881 19.078 20.4831 19.177 19.9781 19.286C19.5151 19.38 19.0511 19.505 18.6241 19.713C18.1295 19.9488 17.726 20.3405 17.4758 20.828C17.2255 21.3155 17.1424 21.8717 17.2391 22.411C17.3443 23.0104 17.6662 23.5503 18.1436 23.9277C18.621 24.3052 19.2205 24.4939 19.8281 24.458C20.3112 24.4394 20.7904 24.3626 21.2551 24.229C22.0941 23.989 22.7191 23.494 23.1041 22.708C23.3541 22.203 23.4321 21.656 23.4321 21.099Z" fill="#D34C4E"/>
<path d="M23.4321 13.484V21.099C23.4321 21.656 23.3541 22.203 23.1041 22.708C22.7191 23.494 22.0941 23.989 21.2551 24.229C20.7904 24.3626 20.3112 24.4394 19.8281 24.458C19.2205 24.4939 18.621 24.3052 18.1436 23.9277C17.6662 23.5503 17.3443 23.0104 17.2391 22.411C17.1424 21.8717 17.2255 21.3155 17.4758 20.828C17.726 20.3405 18.1295 19.9488 18.6241 19.713C19.0511 19.505 19.5151 19.38 19.9781 19.286C20.4831 19.177 20.9881 19.078 21.4881 18.963C21.8581 18.88 22.0971 18.656 22.1701 18.275C22.1911 18.192 22.1961 18.103 22.1961 18.02V10.76C22.1943 10.6772 22.1822 10.5949 22.1601 10.515C22.1081 10.312 21.9621 10.192 21.7541 10.202C21.5401 10.212 21.3321 10.249 21.1241 10.291C20.1074 10.489 19.0934 10.692 18.0821 10.9L13.1501 11.895C13.1291 11.9 13.1031 11.911 13.0821 11.911C12.7121 12.015 12.5821 12.182 12.5661 12.567C12.5611 12.624 12.5661 12.682 12.5661 12.739C12.5611 16.208 12.5661 19.677 12.5611 23.145C12.5611 23.708 12.4981 24.26 12.2751 24.78C11.9051 25.634 11.2491 26.171 10.3641 26.426C9.89627 26.5624 9.41313 26.6394 8.92608 26.655C7.65008 26.702 6.58708 25.853 6.36908 24.598C6.18108 23.515 6.67608 22.348 7.90508 21.827C8.38408 21.629 8.87908 21.52 9.38408 21.416L10.5301 21.182C11.0401 21.073 11.3061 20.75 11.3321 20.229V8.187C11.3334 8.01967 11.3524 7.85467 11.3891 7.692C11.4831 7.312 11.7541 7.093 12.1181 7.004C12.4571 6.915 12.8061 6.853 13.1491 6.78C14.1281 6.582 15.1021 6.384 16.0811 6.191L19.1071 5.576C20.0031 5.399 20.8931 5.217 21.7891 5.04C22.0811 4.983 22.3781 4.92 22.6741 4.899C23.0851 4.863 23.3721 5.123 23.4141 5.54C23.4241 5.63933 23.4294 5.73833 23.4301 5.837V13.478L23.4321 13.484Z" fill="white"/>
</g>
<defs>
<clipPath id="clip0_771_277">
<rect width="32" height="32" fill="white"/>
</clipPath>
</defs>
</svg>
