<svg width="32" height="32" viewBox="0 0 32 32" fill="none" xmlns="http://www.w3.org/2000/svg">
<path d="M16.0001 17.8665L19.8667 21.7332C20.1112 21.9776 20.4223 22.0998 20.8001 22.0998C21.1779 22.0998 21.489 21.9776 21.7334 21.7332C21.9779 21.4887 22.1001 21.1776 22.1001 20.7998C22.1001 20.4221 21.9779 20.1109 21.7334 19.8665L17.8667 15.9998L21.7334 12.1332C21.9779 11.8887 22.1001 11.5776 22.1001 11.1998C22.1001 10.8221 21.9779 10.5109 21.7334 10.2665C21.489 10.0221 21.1779 9.89984 20.8001 9.89984C20.4223 9.89984 20.1112 10.0221 19.8667 10.2665L16.0001 14.1332L12.1334 10.2665C11.889 10.0221 11.5779 9.89984 11.2001 9.89984C10.8223 9.89984 10.5112 10.0221 10.2667 10.2665C10.0223 10.5109 9.90008 10.8221 9.90008 11.1998C9.90008 11.5776 10.0223 11.8887 10.2667 12.1332L14.1334 15.9998L10.2667 19.8665C10.0223 20.1109 9.90008 20.4221 9.90008 20.7998C9.90008 21.1776 10.0223 21.4887 10.2667 21.7332C10.5112 21.9776 10.8223 22.0998 11.2001 22.0998C11.5779 22.0998 11.889 21.9776 12.1334 21.7332L16.0001 17.8665ZM16.0001 29.3332C14.1556 29.3332 12.4223 28.9832 10.8001 28.2832C9.17786 27.5832 7.76675 26.6332 6.56675 25.4332C5.36675 24.2332 4.41675 22.8221 3.71675 21.1998C3.01675 19.5776 2.66675 17.8443 2.66675 15.9998C2.66675 14.1554 3.01675 12.4221 3.71675 10.7998C4.41675 9.17761 5.36675 7.7665 6.56675 6.5665C7.76675 5.3665 9.17786 4.4165 10.8001 3.7165C12.4223 3.0165 14.1556 2.6665 16.0001 2.6665C17.8445 2.6665 19.5779 3.0165 21.2001 3.7165C22.8223 4.4165 24.2334 5.3665 25.4334 6.5665C26.6334 7.7665 27.5834 9.17761 28.2834 10.7998C28.9834 12.4221 29.3334 14.1554 29.3334 15.9998C29.3334 17.8443 28.9834 19.5776 28.2834 21.1998C27.5834 22.8221 26.6334 24.2332 25.4334 25.4332C24.2334 26.6332 22.8223 27.5832 21.2001 28.2832C19.5779 28.9832 17.8445 29.3332 16.0001 29.3332Z" fill="#A0A0A0"/>
</svg>
