<svg width="48" height="48" viewBox="0 0 48 48" fill="none" xmlns="http://www.w3.org/2000/svg">
<path d="M32 40C30.3333 40 28.9167 39.4167 27.75 38.25C26.5833 37.0833 26 35.6667 26 34C26 32.3333 26.5833 30.9167 27.75 29.75C28.9167 28.5833 30.3333 28 32 28C32.3667 28 32.7167 28.025 33.05 28.075C33.3833 28.125 33.7 28.2333 34 28.4V14C34 13.4333 34.1917 12.9583 34.575 12.575C34.9583 12.1917 35.4333 12 36 12H42C42.5667 12 43.0417 12.1917 43.425 12.575C43.8083 12.9583 44 13.4333 44 14C44 14.5667 43.8083 15.0417 43.425 15.425C43.0417 15.8083 42.5667 16 42 16H38V34C38 35.6667 37.4167 37.0833 36.25 38.25C35.0833 39.4167 33.6667 40 32 40ZM8 32C7.43333 32 6.95833 31.8083 6.575 31.425C6.19167 31.0417 6 30.5667 6 30C6 29.4333 6.19167 28.9583 6.575 28.575C6.95833 28.1917 7.43333 28 8 28H20C20.5667 28 21.0417 28.1917 21.425 28.575C21.8083 28.9583 22 29.4333 22 30C22 30.5667 21.8083 31.0417 21.425 31.425C21.0417 31.8083 20.5667 32 20 32H8ZM8 24C7.43333 24 6.95833 23.8083 6.575 23.425C6.19167 23.0417 6 22.5667 6 22C6 21.4333 6.19167 20.9583 6.575 20.575C6.95833 20.1917 7.43333 20 8 20H28C28.5667 20 29.0417 20.1917 29.425 20.575C29.8083 20.9583 30 21.4333 30 22C30 22.5667 29.8083 23.0417 29.425 23.425C29.0417 23.8083 28.5667 24 28 24H8ZM8 16C7.43333 16 6.95833 15.8083 6.575 15.425C6.19167 15.0417 6 14.5667 6 14C6 13.4333 6.19167 12.9583 6.575 12.575C6.95833 12.1917 7.43333 12 8 12H28C28.5667 12 29.0417 12.1917 29.425 12.575C29.8083 12.9583 30 13.4333 30 14C30 14.5667 29.8083 15.0417 29.425 15.425C29.0417 15.8083 28.5667 16 28 16H8Z" fill="white"/>
</svg>
