<svg width="48" height="48" viewBox="0 0 48 48" fill="none" xmlns="http://www.w3.org/2000/svg">
<path d="M21.3 31.5L31.05 25.25C31.5167 24.95 31.75 24.5333 31.75 24C31.75 23.4667 31.5167 23.05 31.05 22.75L21.3 16.5C20.8 16.1667 20.2917 16.1417 19.775 16.425C19.2583 16.7083 19 17.15 19 17.75V30.25C19 30.85 19.2583 31.2917 19.775 31.575C20.2917 31.8583 20.8 31.8333 21.3 31.5ZM24 44C21.2333 44 18.6333 43.475 16.2 42.425C13.7667 41.375 11.65 39.95 9.85 38.15C8.05 36.35 6.625 34.2333 5.575 31.8C4.525 29.3667 4 26.7667 4 24C4 21.2333 4.525 18.6333 5.575 16.2C6.625 13.7667 8.05 11.65 9.85 9.85C11.65 8.05 13.7667 6.625 16.2 5.575C18.6333 4.525 21.2333 4 24 4C26.7667 4 29.3667 4.525 31.8 5.575C34.2333 6.625 36.35 8.05 38.15 9.85C39.95 11.65 41.375 13.7667 42.425 16.2C43.475 18.6333 44 21.2333 44 24C44 26.7667 43.475 29.3667 42.425 31.8C41.375 34.2333 39.95 36.35 38.15 38.15C36.35 39.95 34.2333 41.375 31.8 42.425C29.3667 43.475 26.7667 44 24 44Z" fill="black"/>
</svg>
