<svg width="32" height="32" viewBox="0 0 32 32" fill="none" xmlns="http://www.w3.org/2000/svg">
<path fill-rule="evenodd" clip-rule="evenodd" d="M16 31C7.716 31 1 24.284 1 16C1 7.716 7.716 1 16 1C24.284 1 31 7.716 31 16C31 24.284 24.284 31 16 31ZM17.0907 8.748C14.1073 8.47133 10.9367 8.894 8.126 10.14C7.96367 10.2095 7.81675 10.3105 7.69378 10.4372C7.5708 10.5639 7.47422 10.7138 7.40964 10.8781C7.34506 11.0425 7.31377 11.218 7.31758 11.3946C7.32139 11.5711 7.36022 11.7451 7.43183 11.9065C7.50344 12.0679 7.60639 12.2135 7.73471 12.3348C7.86304 12.4561 8.01417 12.5507 8.17935 12.6131C8.34453 12.6755 8.52046 12.7045 8.69693 12.6983C8.8734 12.6922 9.04689 12.6511 9.20733 12.5773C11.5553 11.5367 14.262 11.164 16.8447 11.4033C19.4427 11.6433 21.9493 12.508 23.854 13.9727C24.1349 14.1793 24.4855 14.2677 24.8308 14.2189C25.1761 14.1701 25.4885 13.988 25.7011 13.7115C25.9136 13.4351 26.0095 13.0864 25.968 12.7402C25.9266 12.394 25.7512 12.0778 25.4793 11.8593C23.098 10.0273 20.0833 9.02467 17.0907 8.748ZM8.97733 15.3987C11.2947 14.3013 13.9293 13.9287 16.3987 14.1613C18.8133 14.3893 21.2547 15.2153 23.1853 16.7367C23.3252 16.8442 23.4423 16.9784 23.5299 17.1315C23.6175 17.2847 23.6739 17.4536 23.6957 17.6287C23.7176 17.8038 23.7044 17.9814 23.6571 18.1514C23.6098 18.3213 23.5292 18.4802 23.4201 18.6188C23.3109 18.7573 23.1753 18.8729 23.0212 18.9587C22.867 19.0445 22.6974 19.0989 22.5221 19.1186C22.3468 19.1384 22.1693 19.1232 21.9999 19.0739C21.8305 19.0246 21.6726 18.9421 21.5353 18.8313C20.084 17.688 18.158 17.006 16.148 16.816C14.0987 16.6227 11.9533 16.94 10.1187 17.8093C9.79899 17.9607 9.43229 17.9788 9.09922 17.8598C8.76616 17.7408 8.49402 17.4943 8.34267 17.1747C8.19132 16.855 8.17316 16.4883 8.29218 16.1552C8.4112 15.8222 8.65766 15.55 8.97733 15.3987ZM15.7087 19.6053C13.886 19.428 11.9407 19.7 10.2107 20.512C10.0489 20.5843 9.90316 20.6881 9.78198 20.8174C9.6608 20.9467 9.5666 21.0988 9.50489 21.2649C9.44318 21.431 9.4152 21.6078 9.42258 21.7848C9.42996 21.9619 9.47256 22.1356 9.54788 22.296C9.6232 22.4564 9.72973 22.6002 9.86126 22.7189C9.99278 22.8377 10.1467 22.929 10.3139 22.9876C10.4811 23.0462 10.6583 23.0709 10.8352 23.0602C11.0121 23.0495 11.185 23.0036 11.344 22.9253C12.5947 22.3387 14.0527 22.1233 15.4507 22.2593C16.8593 22.3967 18.1947 22.8893 19.1907 23.6993C19.4657 23.9132 19.8136 24.0108 20.1597 23.9714C20.5059 23.932 20.8229 23.7587 21.0429 23.4885C21.2629 23.2184 21.3684 22.8728 21.3368 22.5258C21.3053 22.1789 21.1391 21.858 20.874 21.632C19.3987 20.4307 17.5387 19.7833 15.7087 19.6053Z" fill="#5BB74B"/>
</svg>
